# xmcd CD Database Entry
#
# Track frame offsets:
# 150
# 16990
# 35320
# 52470
# 74147
# 91251
# 110013
# 130203
# 150212
# 171464
# 190985
# 208397
# 231245
#
# Disc length: 3420 seconds
#
# Revision: 1
# Processed by: cddbd v1.4PL0 Copyright (c) Steve Scherf et al.
# Submitted via: tcd 2.0b
#
DISCID=c10d5a0d
DTITLE=George - Polyserena
DYEAR=1900
DGENRE=
TTITLE0=Release
TTITLE1=Breaking it Slowly
TTITLE2=Special Ones
TTITLE3=Rain
TTITLE4=Truth
TTITLE5=Bastard Son
TTITLE6=Strange Days
TTITLE7=Chemical Dreams
TTITLE8=Sellout
TTITLE9=Run
TTITLE10=Breathe In Now
TTITLE11=That's When You Come To Me
TTITLE12=Spawn
EXTD=
EXTT0=
EXTT1=
EXTT2=
EXTT3=
EXTT4=
EXTT5=
EXTT6=
EXTT7=
EXTT8=
EXTT9=
EXTT10=
EXTT11=
EXTT12=
PLAYORDER=
